<mxfile host="app.diagrams.net" agent="Mozilla/5.0 (Windows NT 10.0; Win64; x64) AppleWebKit/537.36 (KHTML, like Gecko) Chrome/131.0.0.0 Safari/537.36 Edg/131.0.0.0" version="25.0.3">
  <diagram name="Page-1" id="BgM9WVERRUuV6iEdYltj">
    <mxGraphModel dx="519" dy="709" grid="1" gridSize="10" guides="1" tooltips="1" connect="1" arrows="1" fold="1" page="1" pageScale="1" pageWidth="850" pageHeight="1100" math="0" shadow="0">
      <root>
        <mxCell id="0" />
        <mxCell id="1" parent="0" />
        <mxCell id="AUUyLpw7HqN7aqPbpIpn-19" style="edgeStyle=orthogonalEdgeStyle;rounded=0;orthogonalLoop=1;jettySize=auto;html=1;" parent="1" source="AUUyLpw7HqN7aqPbpIpn-1" target="AUUyLpw7HqN7aqPbpIpn-4" edge="1">
          <mxGeometry relative="1" as="geometry" />
        </mxCell>
        <mxCell id="AUUyLpw7HqN7aqPbpIpn-20" value="Thông tin món" style="edgeLabel;html=1;align=center;verticalAlign=middle;resizable=0;points=[];" parent="AUUyLpw7HqN7aqPbpIpn-19" vertex="1" connectable="0">
          <mxGeometry x="-0.0436" y="2" relative="1" as="geometry">
            <mxPoint as="offset" />
          </mxGeometry>
        </mxCell>
        <mxCell id="AUUyLpw7HqN7aqPbpIpn-1" value="Thêm món ăn" style="ellipse;whiteSpace=wrap;html=1;" parent="1" vertex="1">
          <mxGeometry x="200" y="220" width="120" height="80" as="geometry" />
        </mxCell>
        <mxCell id="AUUyLpw7HqN7aqPbpIpn-2" value="Xóa món ăn" style="ellipse;whiteSpace=wrap;html=1;" parent="1" vertex="1">
          <mxGeometry x="540" y="220" width="120" height="80" as="geometry" />
        </mxCell>
        <mxCell id="AUUyLpw7HqN7aqPbpIpn-12" style="edgeStyle=orthogonalEdgeStyle;rounded=0;orthogonalLoop=1;jettySize=auto;html=1;entryX=1;entryY=0.5;entryDx=0;entryDy=0;" parent="1" source="AUUyLpw7HqN7aqPbpIpn-3" target="AUUyLpw7HqN7aqPbpIpn-4" edge="1">
          <mxGeometry relative="1" as="geometry" />
        </mxCell>
        <mxCell id="AUUyLpw7HqN7aqPbpIpn-18" value="Thông tin món" style="edgeLabel;html=1;align=center;verticalAlign=middle;resizable=0;points=[];" parent="AUUyLpw7HqN7aqPbpIpn-12" vertex="1" connectable="0">
          <mxGeometry x="0.0154" y="2" relative="1" as="geometry">
            <mxPoint x="-3" y="-12" as="offset" />
          </mxGeometry>
        </mxCell>
        <mxCell id="AUUyLpw7HqN7aqPbpIpn-3" value="Chỉnh sửa món&amp;nbsp;" style="ellipse;whiteSpace=wrap;html=1;" parent="1" vertex="1">
          <mxGeometry x="540" y="490" width="120" height="80" as="geometry" />
        </mxCell>
        <mxCell id="AUUyLpw7HqN7aqPbpIpn-4" value="Phân loại" style="ellipse;whiteSpace=wrap;html=1;" parent="1" vertex="1">
          <mxGeometry x="200" y="490" width="120" height="80" as="geometry" />
        </mxCell>
        <mxCell id="AUUyLpw7HqN7aqPbpIpn-16" style="rounded=0;orthogonalLoop=1;jettySize=auto;html=1;entryX=1;entryY=1;entryDx=0;entryDy=0;" parent="1" source="AUUyLpw7HqN7aqPbpIpn-5" target="AUUyLpw7HqN7aqPbpIpn-1" edge="1">
          <mxGeometry relative="1" as="geometry" />
        </mxCell>
        <mxCell id="AUUyLpw7HqN7aqPbpIpn-17" value="Thông tin quản lí thực đơn" style="edgeLabel;html=1;align=center;verticalAlign=middle;resizable=0;points=[];" parent="AUUyLpw7HqN7aqPbpIpn-16" vertex="1" connectable="0">
          <mxGeometry x="-0.04" y="1" relative="1" as="geometry">
            <mxPoint x="84" as="offset" />
          </mxGeometry>
        </mxCell>
        <mxCell id="TK9SzO5GZ7yqQVdlxlHW-1" style="rounded=0;orthogonalLoop=1;jettySize=auto;html=1;entryX=0;entryY=1;entryDx=0;entryDy=0;" edge="1" parent="1" source="AUUyLpw7HqN7aqPbpIpn-5" target="AUUyLpw7HqN7aqPbpIpn-2">
          <mxGeometry relative="1" as="geometry" />
        </mxCell>
        <mxCell id="AUUyLpw7HqN7aqPbpIpn-5" value="Quản lí" style="rounded=0;whiteSpace=wrap;html=1;" parent="1" vertex="1">
          <mxGeometry x="370" y="350" width="120" height="60" as="geometry" />
        </mxCell>
        <mxCell id="AUUyLpw7HqN7aqPbpIpn-6" value="Thực đơn" style="shape=partialRectangle;whiteSpace=wrap;html=1;left=0;right=0;fillColor=none;" parent="1" vertex="1">
          <mxGeometry x="50" y="370" width="120" height="60" as="geometry" />
        </mxCell>
        <mxCell id="AUUyLpw7HqN7aqPbpIpn-21" style="rounded=0;orthogonalLoop=1;jettySize=auto;html=1;entryX=0.554;entryY=1.056;entryDx=0;entryDy=0;entryPerimeter=0;" parent="1" source="AUUyLpw7HqN7aqPbpIpn-4" target="AUUyLpw7HqN7aqPbpIpn-6" edge="1">
          <mxGeometry relative="1" as="geometry" />
        </mxCell>
        <mxCell id="AUUyLpw7HqN7aqPbpIpn-22" value="Thêm vào thực đơn" style="edgeLabel;html=1;align=center;verticalAlign=middle;resizable=0;points=[];" parent="AUUyLpw7HqN7aqPbpIpn-21" vertex="1" connectable="0">
          <mxGeometry x="0.0409" y="-1" relative="1" as="geometry">
            <mxPoint as="offset" />
          </mxGeometry>
        </mxCell>
        <mxCell id="TK9SzO5GZ7yqQVdlxlHW-2" style="rounded=0;orthogonalLoop=1;jettySize=auto;html=1;entryX=0.234;entryY=0.055;entryDx=0;entryDy=0;entryPerimeter=0;" edge="1" parent="1" source="AUUyLpw7HqN7aqPbpIpn-5" target="AUUyLpw7HqN7aqPbpIpn-3">
          <mxGeometry relative="1" as="geometry" />
        </mxCell>
      </root>
    </mxGraphModel>
  </diagram>
</mxfile>
